Coordinates
version=1
nRows=27
nColumns=38
inDegrees=no

Units are S.I. units (second, meters, Newtons, ...)
If the header above contains a line with 'inDegrees', this indicates whether rotational values are in degrees (yes) or radians (no).

endheader
time	pelvis_tilt	pelvis_list	pelvis_rotation	pelvis_tx	pelvis_ty	pelvis_tz	hip_flexion_r	hip_adduction_r	hip_rotation_r	knee_angle_r	ankle_angle_r	subtalar_angle_r	mtp_angle_r	hip_flexion_l	hip_adduction_l	hip_rotation_l	knee_angle_l	ankle_angle_l	subtalar_angle_l	mtp_angle_l	lumbar_extension	lumbar_bending	lumbar_rotation	arm_flex_r	arm_add_r	arm_rot_r	elbow_flex_r	pro_sup_r	wrist_flex_r	wrist_dev_r	arm_flex_l	arm_add_l	arm_rot_l	elbow_flex_l	pro_sup_l	wrist_flex_l	wrist_dev_l
0	0.0853854	1.38287	1.5567	0.927844	-0.311279	1.04584	0.0750239	0.0268663	-0.192092	0.232744	-0.104973	0	0	0.512603	-0.135181	-0.34182	0.488223	-0.228296	0	0	0.0735027	0.0249161	0.0776273	-0.27077	-0.384842	0.0545546	0.88039	1.34174	0	0	-0.208859	-0.125072	-0.384522	0.400411	1.09544	0	0
0.01	0.0839617	1.37171	1.55208	0.927398	-0.301484	1.04398	0.0762427	0.0268608	-0.179075	0.231985	-0.103414	0	0	0.524	-0.125896	-0.334013	0.424059	-0.235586	0	0	0.0820172	0.0259872	0.0836103	-0.270429	-0.389252	0.0527591	0.898689	1.33682	0	0	-0.206854	-0.125035	-0.370025	0.405603	1.08095	0	0
0.02	0.081294	1.36311	1.54984	0.926813	-0.290637	1.04213	0.073361	0.0263381	-0.174953	0.230595	-0.101113	0	0	0.528958	-0.115536	-0.322708	0.355961	-0.240936	0	0	0.0904444	0.0265486	0.0870667	-0.269754	-0.394656	0.0564134	0.914211	1.3278	0	0	-0.207801	-0.126156	-0.351416	0.410776	1.0617	0	0
0.03	0.0833474	1.35582	1.54447	0.926076	-0.279472	1.04024	0.0680249	0.0269186	-0.173905	0.228037	-0.0981559	0	0	0.529963	-0.104626	-0.301659	0.284204	-0.248462	0	0	0.0966987	0.0273457	0.0915961	-0.272277	-0.390294	0.0393759	0.927209	1.35262	0	0	-0.202312	-0.116151	-0.396856	0.413055	1.10935	0	0
0.04	0.0897815	1.34963	1.53474	0.925338	-0.268078	1.03815	0.0606788	0.0286941	-0.171985	0.224514	-0.0960714	0	0	0.529258	-0.0961345	-0.279321	0.215406	-0.254228	0	0	0.102105	0.029581	0.094085	-0.27231	-0.393445	0.0390692	0.940181	1.35543	0	0	-0.202736	-0.115174	-0.388832	0.418985	1.10131	0	0
0.05	0.100597	1.34364	1.5198	0.924668	-0.256521	1.03586	0.052414	0.0316007	-0.16945	0.219807	-0.0950137	0	0	0.527693	-0.0904515	-0.256642	0.149793	-0.256897	0	0	0.107732	0.0332055	0.0966299	-0.270704	-0.398763	0.0443514	0.951114	1.35243	0	0	-0.203416	-0.112481	-0.388749	0.424896	1.10037	0	0
0.06	0.114328	1.33811	1.50216	0.923943	-0.244908	1.03347	0.04393	0.0349922	-0.168932	0.21623	-0.0939398	0	0	0.524994	-0.0863061	-0.230213	0.0867781	-0.263933	0	0	0.112277	0.0377442	0.099082	-0.269412	-0.402097	0.045378	0.960826	1.35869	0	0	-0.203188	-0.108532	-0.394638	0.430322	1.10708	0	0
0.07	0.127338	1.33286	1.48556	0.923137	-0.23312	1.03094	0.0352648	0.0380468	-0.168437	0.213722	-0.0925824	0	0	0.522711	-0.083578	-0.206492	0.0307267	-0.271031	0	0	0.116532	0.0420244	0.100862	-0.267711	-0.405592	0.0480054	0.968849	1.36578	0	0	-0.203377	-0.105325	-0.397892	0.435326	1.11245	0	0
0.08	0.136983	1.32851	1.47179	0.92231	-0.221055	1.02838	0.0259092	0.0400016	-0.167591	0.212303	-0.0916348	0	0	0.523744	-0.0828322	-0.200519	0	-0.27173	0	0	0.120412	0.0456058	0.102755	-0.265129	-0.408375	0.0508398	0.974479	1.3697	0	0	-0.20403	-0.102812	-0.398252	0.439609	1.11406	0	0
0.09	0.145141	1.3249	1.46014	0.921365	-0.208805	1.02581	0.0164812	0.041235	-0.167464	0.212696	-0.0892472	0	0	0.527197	-0.0823629	-0.201594	0	-0.267998	0	0	0.123897	0.0485853	0.103713	-0.263124	-0.411436	0.0547134	0.979405	1.37757	0	0	-0.205611	-0.100035	-0.400073	0.445212	1.11608	0	0
0.1	0.145036	1.32282	1.45706	0.920328	-0.196344	1.02343	0.00691105	0.0396524	-0.169571	0.215984	-0.0862726	0	0	0.530061	-0.0794811	-0.207465	0	-0.257459	0	0	0.126817	0.0494635	0.103833	-0.25952	-0.417139	0.0661913	0.981968	1.37059	0	0	-0.211541	-0.110644	-0.336917	0.450999	1.05369	0	0
0.11	0.137327	1.32306	1.46091	0.91932	-0.183663	1.02137	-0.0029284	0.0352593	-0.173471	0.224006	-0.0834769	0	0	0.53097	-0.074644	-0.216767	0	-0.240642	0	0	0.126549	0.0459514	0.104458	-0.255165	-0.408682	0.0563548	0.97661	1.41259	0	0	-0.210496	-0.101476	-0.380681	0.455625	1.09538	0	0
0.12	0.12837	1.32284	1.46681	0.918191	-0.170856	1.01943	-0.0122733	0.0305276	-0.174639	0.230322	-0.0836077	0	0	0.532652	-0.06904	-0.22285	0	-0.235923	0	0	0.127011	0.0427634	0.105306	-0.251062	-0.407917	0.0603574	0.972811	1.4172	0	0	-0.210605	-0.101365	-0.379348	0.457668	1.09316	0	0
0.13	0.117877	1.32393	1.47464	0.917008	-0.157846	1.01771	-0.0219658	0.0249197	-0.176025	0.239217	-0.0844416	0	0	0.533194	-0.0628514	-0.227218	0	-0.231955	0	0	0.125604	0.0382962	0.105788	-0.246648	-0.406458	0.0650667	0.967056	1.42244	0	0	-0.211088	-0.101814	-0.377877	0.460669	1.08902	0	0
0.14	0.109638	1.32446	1.48075	0.915725	-0.144566	1.01604	-0.0310956	0.0196879	-0.174423	0.247672	-0.0855813	0	0	0.534038	-0.0572261	-0.227356	0	-0.23142	0	0	0.125249	0.0348595	0.106931	-0.244237	-0.406468	0.0708219	0.961772	1.41355	0	0	-0.20981	-0.100561	-0.38551	0.460381	1.09574	0	0
0.15	0.0998307	1.32659	1.48891	0.914387	-0.130994	1.01455	-0.0405986	0.0135602	-0.173823	0.259701	-0.0880489	0	0	0.532539	-0.051135	-0.225597	0	-0.230989	0	0	0.123266	0.0304928	0.106437	-0.24131	-0.403202	0.0728307	0.953781	1.41744	0	0	-0.210797	-0.10043	-0.388942	0.462403	1.09496	0	0
0.16	0.0903543	1.32876	1.49629	0.913071	-0.117138	1.01318	-0.0482077	0.00745114	-0.174796	0.275686	-0.0923774	0	0	0.529835	-0.0453719	-0.221111	0	-0.232647	0	0	0.121831	0.0261476	0.105696	-0.238603	-0.398992	0.0746336	0.943899	1.42205	0	0	-0.213213	-0.100417	-0.3929	0.464872	1.09376	0	0
0.17	0.0793473	1.33053	1.50427	0.911806	-0.102933	1.01186	-0.0514935	5.27942e-05	-0.180897	0.301577	-0.101519	0	0	0.527923	-0.0405074	-0.220699	0.015164	-0.236783	0	0	0.122946	0.0213541	0.103221	-0.233886	-0.395013	0.0819917	0.929715	1.4251	0	0	-0.222609	-0.107821	-0.361859	0.471159	1.05251	0	0
0.18	0.0697631	1.33114	1.50973	0.910538	-0.0884005	1.01056	-0.0529964	-0.00740675	-0.180067	0.327299	-0.111792	0	0	0.52775	-0.0373757	-0.226191	0.0412993	-0.250077	0	0	0.126954	0.0169431	0.101451	-0.229586	-0.390655	0.0908755	0.912619	1.42668	0	0	-0.227096	-0.100912	-0.400976	0.472174	1.0807	0	0
0.19	0.0564097	1.33044	1.51796	0.909362	-0.0736767	1.0094	-0.0509492	-0.016016	-0.174555	0.356959	-0.122976	0	0	0.528151	-0.0337201	-0.230108	0.0614358	-0.271884	0	0	0.13324	0.0121308	0.100297	-0.225228	-0.386566	0.102519	0.893495	1.42278	0	0	-0.234244	-0.101894	-0.403488	0.471432	1.07185	0	0
0.2	0.0378102	1.32711	1.53137	0.908297	-0.0590419	1.00843	-0.0430154	-0.0258317	-0.16515	0.391699	-0.136597	0	0	0.532725	-0.0300482	-0.234071	0.0820928	-0.290652	0	0	0.143459	0.00573241	0.0981318	-0.218945	-0.380909	0.116957	0.86928	1.41901	0	0	-0.241606	-0.104097	-0.404583	0.468112	1.06247	0	0
0.21	0.0145616	1.32349	1.55088	0.907203	-0.0446606	1.00793	-0.0313893	-0.0370315	-0.154439	0.432024	-0.15106	0	0	0.538733	-0.0273421	-0.239688	0.107558	-0.298213	0	0	0.151737	-0.00225213	0.0983608	-0.216845	-0.366405	0.109487	0.844363	1.43779	0	0	-0.243689	-0.106997	-0.406558	0.460624	1.06105	0	0
0.22	-0.012956	1.31691	1.57635	0.906054	-0.0304549	1.0076	-0.0133162	-0.0499083	-0.142807	0.47754	-0.173486	0	0	0.547766	-0.0247588	-0.245651	0.13709	-0.300309	0	0	0.166918	-0.0123762	0.0943544	-0.209769	-0.356605	0.122381	0.812316	1.43429	0	0	-0.249102	-0.10961	-0.413481	0.453814	1.06079	0	0
0.23	-0.0439672	1.31137	1.60737	0.904755	-0.0164658	1.00764	0.00596582	-0.0644506	-0.131612	0.525351	-0.201933	0	0	0.55512	-0.0201979	-0.249717	0.168489	-0.296316	0	0	0.17944	-0.0240483	0.0892185	-0.203274	-0.346243	0.133592	0.781016	1.42837	0	0	-0.253741	-0.112716	-0.418996	0.448006	1.05907	0	0
0.24	-0.0761628	1.30755	1.64169	0.903304	-0.00272025	1.008	0.0249664	-0.0796302	-0.120753	0.573925	-0.235403	0	0	0.56042	-0.0133183	-0.250302	0.201201	-0.289174	0	0	0.187697	-0.0366544	0.0825988	-0.197527	-0.336055	0.143316	0.752092	1.42202	0	0	-0.257553	-0.115942	-0.423881	0.444106	1.05562	0	0
0.25	-0.107397	1.30373	1.67605	0.901825	0.0107527	1.00844	0.0458233	-0.0944732	-0.109817	0.62355	-0.276865	0	0	0.564988	-0.00508226	-0.248512	0.233554	-0.276074	0	0	0.195607	-0.0493675	0.0723427	-0.188073	-0.335372	0.181297	0.725091	1.38109	0	0	-0.26813	-0.128656	-0.377716	0.445361	0.996942	0	0
0.26	-0.134487	1.30079	1.70534	0.900356	0.0238369	1.00894	0.0686584	-0.108034	-0.0999219	0.674891	-0.324452	0	0	0.567528	0.00240127	-0.247608	0.263651	-0.255949	0	0	0.198206	-0.061127	0.0684834	-0.187478	-0.322386	0.174532	0.702672	1.39608	0	0	-0.265955	-0.124423	-0.419261	0.442874	1.03051	0	0
